<svg width="21" height="138" viewBox="0 0 21 138" fill="none" xmlns="http://www.w3.org/2000/svg">
<g filter="url(#filter0_d_6_332)">
<path d="M16.0337 133.91L4.83369 133.91L4.83369 126.678L6.48169 126.678L6.48169 131.862L9.61769 131.862L9.61769 127.67L11.2337 127.67L11.2337 131.862L16.0337 131.862L16.0337 133.91ZM16.2257 120.441C16.2257 121.039 16.1137 121.561 15.8897 122.009C15.6657 122.457 15.351 122.82 14.9457 123.097L16.0337 123.321L16.0337 125.145L4.51369 125.145L4.51369 123.097L9.23369 123.097C8.88169 122.841 8.57236 122.505 8.30569 122.089C8.03902 121.663 7.90569 121.113 7.90569 120.441C7.90569 119.695 8.08702 119.028 8.44969 118.441C8.81236 117.855 9.30836 117.391 9.93769 117.049C10.567 116.708 11.2817 116.537 12.0817 116.537C12.8817 116.537 13.5964 116.708 14.2257 117.049C14.8444 117.391 15.335 117.855 15.6977 118.441C16.0497 119.028 16.2257 119.695 16.2257 120.441ZM14.4337 120.873C14.4337 120.223 14.215 119.684 13.7777 119.257C13.3404 118.831 12.775 118.617 12.0817 118.617C11.3884 118.617 10.8177 118.831 10.3697 119.257C9.92169 119.684 9.69769 120.223 9.69769 120.873C9.69769 121.535 9.92169 122.079 10.3697 122.505C10.807 122.921 11.3724 123.129 12.0657 123.129C12.759 123.129 13.3297 122.921 13.7777 122.505C14.215 122.079 14.4337 121.535 14.4337 120.873ZM16.0337 72.7224L4.83369 72.7224L4.83369 70.6744L16.0337 70.6744L16.0337 72.7224ZM16.0337 68.5517L8.09769 68.5517L8.09769 66.7437L9.44169 66.5837C8.97235 66.3383 8.59902 65.9863 8.32169 65.5277C8.04435 65.0583 7.90569 64.509 7.90569 63.8797C7.90569 62.8983 8.21502 62.1357 8.83369 61.5917C9.45235 61.0477 10.359 60.7757 11.5537 60.7757L16.0337 60.7757L16.0337 62.8237L11.7457 62.8237C11.063 62.8237 10.5404 62.9623 10.1777 63.2397C9.81502 63.517 9.63369 63.949 9.63369 64.5357C9.63369 65.1117 9.83635 65.5863 10.2417 65.9597C10.647 66.3223 11.2124 66.5037 11.9377 66.5037L16.0337 66.5037L16.0337 68.5517ZM16.0337 21.8488L6.48169 21.8488L6.48169 25.1128L4.83369 25.1128L4.83369 16.5208L6.48169 16.5208L6.48169 19.8008L16.0337 19.8008L16.0337 21.8488ZM16.0337 14.4059L8.09769 16.7259L8.09769 14.6939L13.8097 13.3179L8.09769 11.7179L8.09769 9.44592L13.8097 7.84592L8.09769 6.45392L8.09769 4.42192L16.0337 6.75792L16.0337 8.88592L10.0977 10.5819L16.0337 12.2779L16.0337 14.4059Z" fill="white"/>
</g>
<defs>
<filter id="filter0_d_6_332" x="0.513672" y="0.421906" width="19.7119" height="137.488" filterUnits="userSpaceOnUse" color-interpolation-filters="sRGB">
<feFlood flood-opacity="0" result="BackgroundImageFix"/>
<feColorMatrix in="SourceAlpha" type="matrix" values="0 0 0 0 0 0 0 0 0 0 0 0 0 0 0 0 0 0 127 0" result="hardAlpha"/>
<feOffset/>
<feGaussianBlur stdDeviation="2"/>
<feColorMatrix type="matrix" values="0 0 0 0 0 0 0 0 0 0 0 0 0 0 0 0 0 0 0.1 0"/>
<feBlend mode="normal" in2="BackgroundImageFix" result="effect1_dropShadow_6_332"/>
<feBlend mode="normal" in="SourceGraphic" in2="effect1_dropShadow_6_332" result="shape"/>
</filter>
</defs>
</svg>
