<svg width="1434" height="24" viewBox="0 0 1434 24" fill="none" xmlns="http://www.w3.org/2000/svg">
<path fill-rule="evenodd" clip-rule="evenodd" d="M6.07336 12.1394L13.5725 19.6386C14.5489 20.6149 14.5489 22.1978 13.5725 23.1741C12.5962 24.1504 11.0133 24.1504 10.037 23.1741L0.732233 13.8693C-0.244078 12.893 -0.244078 11.3101 0.732233 10.3338C0.857529 10.2085 0.992815 10.0993 1.13553 10.0061L10.4094 0.732233C11.3858 -0.244078 12.9687 -0.244078 13.945 0.732233C14.9213 1.70854 14.9213 3.29146 13.945 4.26777L6.07336 12.1394Z" fill="#020B20"/>
<path fill-rule="evenodd" clip-rule="evenodd" d="M1427.6 12.1394L1420.1 19.6386C1419.13 20.6149 1419.13 22.1978 1420.1 23.1741C1421.08 24.1504 1422.66 24.1504 1423.64 23.1741L1432.95 13.8693C1433.92 12.893 1433.92 11.3101 1432.95 10.3338C1432.82 10.2085 1432.68 10.0993 1432.54 10.0061L1423.27 0.732233C1422.29 -0.244078 1420.71 -0.244078 1419.73 0.732233C1418.76 1.70854 1418.76 3.29146 1419.73 4.26777L1427.6 12.1394Z" fill="#020B20"/>
</svg>
