<svg width="22" height="437" viewBox="0 0 22 437" fill="none" xmlns="http://www.w3.org/2000/svg">
<rect width="2.00104" height="296" transform="matrix(1 0 0 -1 6.03687 396.001)" fill="white"/>
<rect width="2.00104" height="296" transform="matrix(1 0 0 -1 6.03687 396.001)" fill="white"/>
<g filter="url(#filter0_d_10720_16)">
<rect width="4.00208" height="100" transform="matrix(1 0 0 -1 5.03638 100.001)" fill="#DD2242"/>
</g>
<g filter="url(#filter1_d_10720_16)">
<path d="M16.2257 427.321C16.2257 428.355 15.9857 429.241 15.5057 429.977C15.015 430.713 14.3377 431.283 13.4737 431.689C12.599 432.083 11.5857 432.281 10.4337 432.281C9.29236 432.281 8.28436 432.083 7.40969 431.689C6.53502 431.283 5.85769 430.713 5.37769 429.977C4.88702 429.241 4.64169 428.355 4.64169 427.321C4.64169 426.286 4.88702 425.401 5.37769 424.665C5.85769 423.929 6.53502 423.363 7.40969 422.969C8.28436 422.563 9.29236 422.361 10.4337 422.361C11.5857 422.361 12.599 422.563 13.4737 422.969C14.3377 423.363 15.015 423.929 15.5057 424.665C15.9857 425.401 16.2257 426.286 16.2257 427.321ZM14.3857 427.321C14.3857 426.478 14.0337 425.79 13.3297 425.257C12.6257 424.723 11.6604 424.457 10.4337 424.457C9.20702 424.457 8.24169 424.723 7.53769 425.257C6.83369 425.79 6.48169 426.478 6.48169 427.321C6.48169 428.174 6.83369 428.867 7.53769 429.401C8.24169 429.923 9.20702 430.185 10.4337 430.185C11.6604 430.185 12.6257 429.923 13.3297 429.401C14.0337 428.867 14.3857 428.174 14.3857 427.321ZM16.0337 419.337L7.16969 419.337L7.60169 421.177L6.03369 421.177L4.83369 418.473L4.83369 417.209L16.0337 417.209L16.0337 419.337Z" fill="white"/>
</g>
<defs>
<filter id="filter0_d_10720_16" x="1.03638" y="0.000671387" width="12.0022" height="108" filterUnits="userSpaceOnUse" color-interpolation-filters="sRGB">
<feFlood flood-opacity="0" result="BackgroundImageFix"/>
<feColorMatrix in="SourceAlpha" type="matrix" values="0 0 0 0 0 0 0 0 0 0 0 0 0 0 0 0 0 0 127 0" result="hardAlpha"/>
<feOffset dy="4"/>
<feGaussianBlur stdDeviation="2"/>
<feColorMatrix type="matrix" values="0 0 0 0 0 0 0 0 0 0 0 0 0 0 0 0 0 0 0.45 0"/>
<feBlend mode="normal" in2="BackgroundImageFix" result="effect1_dropShadow_10720_16"/>
<feBlend mode="normal" in="SourceGraphic" in2="effect1_dropShadow_10720_16" result="shape"/>
</filter>
<filter id="filter1_d_10720_16" x="0.641602" y="413.209" width="19.584" height="23.0714" filterUnits="userSpaceOnUse" color-interpolation-filters="sRGB">
<feFlood flood-opacity="0" result="BackgroundImageFix"/>
<feColorMatrix in="SourceAlpha" type="matrix" values="0 0 0 0 0 0 0 0 0 0 0 0 0 0 0 0 0 0 127 0" result="hardAlpha"/>
<feOffset/>
<feGaussianBlur stdDeviation="2"/>
<feColorMatrix type="matrix" values="0 0 0 0 0 0 0 0 0 0 0 0 0 0 0 0 0 0 0.1 0"/>
<feBlend mode="normal" in2="BackgroundImageFix" result="effect1_dropShadow_10720_16"/>
<feBlend mode="normal" in="SourceGraphic" in2="effect1_dropShadow_10720_16" result="shape"/>
</filter>
</defs>
</svg>
